<svg version="1.1" id="Layer_1" xmlns="http://www.w3.org/2000/svg" xmlns:xlink="http://www.w3.org/1999/xlink" x="0px" y="0px"
	 width="100%" viewBox="0 0 288 285" enable-background="new 0 0 288 285" xml:space="preserve">
<path fill="#000000" opacity="1.000000" stroke="none" 
	d="
M161.000000,286.000000 
	C107.333344,286.000000 54.166679,286.000000 1.000014,286.000000 
	C1.000010,191.000015 1.000010,96.000038 1.000005,1.000040 
	C96.999969,1.000026 192.999939,1.000026 288.999939,1.000013 
	C288.999939,95.999962 288.999939,190.999924 288.999969,285.999939 
	C246.500000,286.000000 204.000000,286.000000 161.000000,286.000000 
M216.974518,130.956909 
	C216.974518,130.956909 216.914978,130.930313 216.298828,131.161514 
	C215.585785,132.442322 214.872742,133.723145 213.857849,135.632538 
	C212.856522,137.398209 211.855179,139.163895 210.224518,141.245850 
	C207.456924,146.465942 204.689346,151.686050 201.986359,156.945129 
	C201.986359,156.945129 201.922775,156.921387 201.360931,157.124008 
	C200.960266,157.753860 200.559601,158.383698 199.841232,159.653915 
	C197.612289,163.446442 195.383347,167.238968 193.003204,171.464737 
	C193.003204,171.464737 192.887650,171.908829 192.349792,172.103271 
	C192.242706,172.625473 192.135620,173.147659 191.418076,174.076355 
	C183.254608,188.053467 175.091141,202.030594 166.648178,216.486267 
	C160.141953,205.757629 154.134247,195.851044 148.022430,185.222733 
	C146.383560,182.446945 144.744690,179.671173 143.010422,176.183029 
	C141.051666,173.102982 139.092896,170.022949 137.025864,166.216690 
	C134.733246,162.463928 132.440628,158.711166 130.026779,154.231415 
	C127.731071,150.473434 125.435364,146.715439 123.024406,142.226837 
	C120.636780,138.159592 118.249153,134.092346 115.835358,129.317154 
	C112.927757,124.509842 110.020157,119.702522 107.007309,114.178108 
	C104.697014,110.411537 102.386711,106.644966 99.992607,102.161911 
	C98.037819,99.093987 96.083031,96.026062 94.015434,92.227577 
	C92.050011,88.805016 90.084579,85.382446 88.011932,81.236374 
	C83.291527,73.209785 78.571121,65.183197 73.732307,56.258949 
	C54.342651,56.178040 34.953007,56.090321 15.563272,56.057083 
	C15.097991,56.056282 14.631667,56.663891 14.224664,57.683632 
	C17.943262,64.099083 21.596935,70.553291 25.397396,76.919876 
	C29.842436,84.366249 34.415432,91.736244 38.974232,99.860527 
	C41.609688,104.276253 44.245140,108.691971 46.950363,113.829697 
	C49.619602,118.268356 52.288841,122.707024 55.258915,127.774666 
	C57.135281,130.877686 59.011642,133.980713 60.969543,137.813675 
	C63.960690,142.921341 66.951836,148.029022 70.003929,153.851700 
	C72.644730,158.277252 75.285530,162.702805 77.998268,167.843292 
	C80.313492,171.610016 82.628716,175.376740 85.250015,179.773361 
	C87.154167,182.892395 89.058311,186.011414 91.265518,189.778976 
	C93.477043,193.551025 95.688560,197.323090 97.975807,201.824036 
	C106.351486,216.426010 114.697678,231.045074 123.134346,245.611725 
	C124.414154,247.821442 125.929535,251.380859 127.653183,251.580765 
	C133.904800,252.305817 140.291458,251.866562 147.412949,251.866562 
	C135.772095,231.809326 124.806648,212.915817 113.790794,193.322327 
	C111.568977,189.857025 109.347153,186.391708 107.007927,182.209625 
	C104.957466,178.821518 102.906998,175.433411 100.839432,171.329788 
	C98.511063,167.564499 96.182693,163.799194 93.825806,159.320435 
	C91.171654,154.895706 88.517509,150.470963 85.853447,145.330353 
	C83.281616,141.198090 80.709785,137.065842 78.031647,132.207825 
	C75.737900,128.455917 73.444153,124.704002 71.030495,120.225052 
	C68.643738,116.157204 66.256973,112.089363 63.847691,107.312683 
	C60.948185,102.511772 58.048676,97.710869 55.019470,92.197182 
	C51.629436,86.385353 48.239403,80.573532 44.554905,74.256882 
	C51.360363,74.256882 57.438225,74.256882 63.062023,74.256882 
	C65.750786,78.317787 68.314484,82.189812 70.973900,86.791122 
	C73.634087,91.233925 76.294273,95.676727 79.009041,100.824326 
	C80.305786,102.922043 81.602531,105.019753 82.961098,107.841164 
	C85.609291,112.274925 88.257477,116.708679 90.953857,121.864876 
	C93.948502,126.957535 96.943146,132.050201 100.250114,137.770737 
	C102.478447,141.562881 104.706779,145.355026 107.006805,149.572479 
	C107.006805,149.572479 107.148216,149.979980 107.113136,150.581085 
	C107.708778,151.092041 108.304420,151.603012 108.964615,152.833939 
	C110.629242,155.606201 112.293877,158.378448 114.259918,161.778687 
	C116.148842,164.898621 118.037766,168.018555 119.972054,171.856735 
	C122.288803,175.610580 124.605553,179.364410 126.979927,183.841660 
	C128.958511,187.264893 130.937088,190.688141 133.225998,194.745834 
	C144.210052,213.817703 155.194122,232.889557 166.410858,252.365417 
	C167.483749,250.930542 168.364868,249.955505 169.018509,248.846420 
	C175.360748,238.084625 181.712967,227.328186 187.968597,216.515961 
	C197.303833,200.380936 206.563354,184.202087 216.148315,167.387619 
	C218.796967,162.957733 221.445633,158.527847 224.733566,153.769073 
	C227.193069,149.201523 229.652557,144.633987 232.744110,139.737396 
	C235.198532,135.178940 237.652954,130.620468 240.734375,125.743309 
	C242.838333,121.870193 244.942276,117.997078 247.620041,113.870773 
	C247.781952,113.285782 247.943863,112.700790 248.574448,111.909058 
	C248.670044,111.609947 248.765640,111.310837 249.165207,110.369377 
	C252.481918,104.594307 255.798615,98.819229 259.737915,92.728210 
	C263.196777,86.499161 266.655640,80.270111 270.736298,73.724487 
	C273.780884,68.306252 276.825439,62.888023 280.131683,57.004116 
	C273.439087,57.004116 267.641907,56.938725 261.848511,57.057831 
	C260.651642,57.082439 258.851440,57.433125 258.376862,58.245502 
	C254.406479,65.041718 250.680923,71.980957 246.258331,79.224236 
	C242.893127,85.151421 239.527924,91.078598 235.841660,97.651062 
	C232.867905,103.064682 229.894165,108.478302 226.956924,113.939323 
	C226.956924,113.939323 226.922363,113.907997 226.363144,114.118637 
	C225.961349,114.749100 225.559555,115.379570 224.836044,116.654266 
	C222.536499,120.724739 220.236954,124.795212 217.924133,128.895599 
	C217.924133,128.895599 217.913086,128.923141 217.312271,129.147629 
	C217.181076,129.761963 217.049881,130.376297 216.974518,130.956909 
M109.996399,89.827820 
	C111.049919,91.554146 112.103439,93.280479 113.214027,95.696045 
	C115.102341,98.505112 116.990646,101.314186 118.939583,104.836174 
	C120.607529,107.269684 122.275475,109.703194 123.983200,112.854813 
	C125.632797,115.616562 127.282394,118.378311 129.235397,121.764236 
	C130.788300,124.212723 132.341217,126.661209 133.960281,129.826981 
	C135.291336,131.920898 136.622406,134.014816 138.012192,136.837570 
	C140.612473,141.631760 143.212769,146.425934 146.464630,152.421432 
	C151.132767,143.800797 155.121231,136.435349 159.736328,128.774490 
	C161.172302,126.223038 162.608276,123.671593 164.618851,120.864616 
	C164.781982,120.276314 164.945099,119.688011 165.572250,118.909584 
	C165.664780,118.617783 165.757309,118.325981 166.145248,117.385086 
	C168.384445,113.606812 170.623657,109.828537 173.155365,105.393112 
	C175.140793,101.946884 177.126236,98.500648 179.737305,94.734711 
	C182.195801,90.170296 184.654297,85.605888 187.742401,80.714607 
	C189.651413,75.364723 193.132706,72.942299 199.039886,73.909050 
	C202.241501,74.433014 205.593262,74.039551 208.947571,74.771225 
	C208.261566,76.476089 207.575546,78.180946 206.254013,80.194260 
	C204.128708,84.092140 202.003387,87.990021 199.259888,92.226372 
	C197.230011,96.149132 195.200134,100.071899 192.867661,104.633018 
	C190.298935,108.759026 187.730209,112.885033 184.845596,117.650558 
	C182.616837,121.437279 180.388092,125.224007 177.855804,129.638031 
	C176.853256,131.407074 175.850708,133.176102 174.220856,135.262268 
	C168.808746,144.677185 163.358047,154.070328 158.021408,163.527832 
	C157.098724,165.162994 155.591949,167.618332 156.177505,168.760422 
	C159.075851,174.413589 162.586060,179.753052 166.294296,185.887512 
	C170.659958,178.312973 174.401657,171.863632 178.102310,165.390823 
	C184.454651,154.279968 190.781403,143.154465 197.736435,131.727524 
	C199.109482,129.147705 200.482529,126.567886 202.022217,123.531380 
	C202.022217,123.531380 202.124252,123.056068 202.591461,122.896774 
	C202.878403,122.696465 203.047012,122.423172 203.727951,121.754601 
	C205.437119,118.511345 207.146301,115.268089 209.155579,111.380020 
	C211.119247,107.960075 213.082932,104.540123 215.683243,100.795990 
	C218.162064,96.211281 220.640900,91.626572 223.740860,86.726227 
	C225.777115,83.153702 227.813370,79.581177 230.145966,75.357498 
	C232.040909,71.904716 233.935852,68.451935 236.134720,64.361031 
	C237.364868,62.180519 238.595016,60.000008 239.916977,56.986263 
	C239.105392,56.660080 238.294693,56.051674 237.482117,56.049183 
	C219.442093,55.993923 201.401825,55.992310 183.361801,56.046246 
	C182.518768,56.048763 181.677582,56.660305 180.201523,57.266285 
	C178.190750,60.843445 176.179977,64.420609 173.871170,68.630028 
	C172.859756,70.393608 171.848343,72.157188 170.226837,74.256401 
	C168.440552,77.470657 166.654266,80.684921 164.234573,84.206520 
	C161.448196,89.438736 158.661819,94.670952 155.239716,100.212578 
	C153.213898,103.812828 151.188080,107.413086 148.857071,111.633568 
	C147.325317,112.104042 148.245514,116.674088 144.820099,113.322250 
	C143.262711,110.856766 141.705307,108.391281 140.015518,105.217857 
	C138.298523,102.487442 136.581512,99.757027 134.847382,96.323738 
	C133.271286,93.867081 131.695206,91.410423 129.845276,88.317101 
	C128.605438,86.529709 127.365601,84.742310 126.018761,82.239372 
	C124.725426,80.142326 123.432098,78.045288 122.027855,75.221870 
	C118.767036,69.666161 115.547752,64.085258 112.207504,58.577721 
	C111.598663,57.573826 110.520493,56.170631 109.617653,56.139217 
	C103.443916,55.924423 97.259148,56.026600 90.316864,56.026600 
	C95.887650,65.332703 100.916183,73.732956 106.002953,82.836235 
	C107.314095,84.935310 108.625244,87.034378 109.996399,89.827820 
z"/>
<path fill="#05B0EF" opacity="1.000000" stroke="none" 
	d="
M192.887665,171.908829 
	C192.887650,171.908829 193.003204,171.464737 193.510498,171.241577 
	C197.425003,170.494492 200.825653,169.922333 204.241119,169.459442 
	C208.105499,168.935760 211.983185,168.510132 215.855072,168.041870 
	C206.563354,184.202087 197.303833,200.380936 187.968597,216.515961 
	C181.712967,227.328186 175.360748,238.084625 169.018509,248.846420 
	C168.364868,249.955505 167.483749,250.930542 166.410858,252.365417 
	C155.194122,232.889557 144.210052,213.817703 133.109650,194.042847 
	C134.211044,192.003159 135.183762,190.063995 136.695145,189.449310 
	C140.372498,187.953720 144.299881,187.072891 148.126556,185.944458 
	C154.134247,195.851044 160.141953,205.757629 166.648178,216.486267 
	C175.091141,202.030594 183.254608,188.053467 191.920959,173.723572 
	C192.578430,172.883484 192.733047,172.396164 192.887665,171.908829 
z"/>
<path fill="#5473FF" opacity="1.000000" stroke="none" 
	d="
M70.878189,86.061836 
	C68.314484,82.189812 65.750786,78.317787 63.062023,74.256882 
	C57.438225,74.256882 51.360363,74.256882 44.554905,74.256882 
	C48.239403,80.573532 51.629436,86.385353 54.741203,92.712158 
	C49.286259,95.197884 44.109585,97.168625 38.932915,99.139374 
	C34.415432,91.736244 29.842436,84.366249 25.397396,76.919876 
	C21.596935,70.553291 17.943262,64.099083 14.653357,57.337521 
	C34.671604,57.046474 54.261162,57.101540 73.850716,57.156609 
	C78.571121,65.183197 83.291527,73.209785 87.688347,81.676628 
	C81.869240,83.431870 76.373711,84.746857 70.878189,86.061836 
z"/>
<path fill="#05B0EF" opacity="1.000000" stroke="none" 
	d="
M113.841194,194.022293 
	C124.806648,212.915817 135.772095,231.809326 147.412949,251.866562 
	C140.291458,251.866562 133.904800,252.305817 127.653183,251.580765 
	C125.929535,251.380859 124.414154,247.821442 123.134346,245.611725 
	C114.697678,231.045074 106.351486,216.426010 97.929497,201.150055 
	C98.540115,199.506058 99.013443,197.931824 99.884682,197.667084 
	C104.481583,196.270264 109.178787,195.203537 113.841194,194.022293 
z"/>
<path fill="#06B1EF" opacity="1.000000" stroke="none" 
	d="
M197.118912,132.035110 
	C190.781403,143.154465 184.454651,154.279968 178.102310,165.390823 
	C174.401657,171.863632 170.659958,178.312973 166.294296,185.887512 
	C162.586060,179.753052 159.075851,174.413589 156.177505,168.760422 
	C155.591949,167.618332 157.098724,165.162994 158.021408,163.527832 
	C163.358047,154.070328 168.808746,144.677185 174.708557,135.423645 
	C177.298660,135.721771 179.492233,136.310150 181.485794,135.907745 
	C186.743179,134.846497 191.913773,133.355179 197.118912,132.035110 
z"/>
<path fill="#3C83FB" opacity="1.000000" stroke="none" 
	d="
M208.877304,74.059937 
	C205.593262,74.039551 202.241501,74.433014 199.039886,73.909050 
	C193.132706,72.942299 189.651413,75.364723 187.007507,80.871582 
	C181.101639,82.429710 175.976776,84.063217 170.734299,85.104401 
	C168.929825,85.462776 166.831863,84.343452 164.867981,83.899185 
	C166.654266,80.684921 168.440552,77.470657 170.697998,74.401871 
	C172.808273,74.741196 174.624649,75.495956 176.059219,75.042595 
	C191.363190,70.206215 206.622330,65.225182 221.842987,60.132069 
	C223.395309,59.612633 224.616913,58.104813 226.452606,57.029274 
	C231.217194,57.275097 235.521194,57.547298 239.825180,57.819504 
	C238.595016,60.000008 237.364868,62.180519 235.570129,64.680756 
	C226.296127,68.020294 217.586716,71.040123 208.877304,74.059937 
z"/>
<path fill="#5574FF" opacity="1.000000" stroke="none" 
	d="
M105.944710,82.133209 
	C100.916183,73.732956 95.887650,65.332703 90.316864,56.026600 
	C97.259148,56.026600 103.443916,55.924423 109.617653,56.139217 
	C110.520493,56.170631 111.598663,57.573826 112.207504,58.577721 
	C115.547752,64.085258 118.767036,69.666161 121.687698,75.620941 
	C116.213272,78.057755 111.078987,80.095482 105.944710,82.133209 
z"/>
<path fill="#3E85FA" opacity="1.000000" stroke="none" 
	d="
M246.881561,78.877075 
	C250.680923,71.980957 254.406479,65.041718 258.376862,58.245502 
	C258.851440,57.433125 260.651642,57.082439 261.848511,57.057831 
	C267.641907,56.938725 273.439087,57.004116 280.131683,57.004116 
	C276.825439,62.888023 273.780884,68.306252 269.993347,73.874413 
	C261.794128,75.641914 254.337845,77.259499 246.881561,78.877075 
z"/>
<path fill="#328DF8" opacity="1.000000" stroke="none" 
	d="
M246.569946,79.050659 
	C254.337845,77.259499 261.794128,75.641914 269.682465,74.032700 
	C266.655640,80.270111 263.196777,86.499161 258.983521,92.876999 
	C255.165985,93.424271 252.078033,93.689323 249.045639,94.253181 
	C244.729950,95.055664 240.455048,96.077606 236.162720,97.005783 
	C239.527924,91.078598 242.893127,85.151421 246.569946,79.050659 
z"/>
<path fill="#229AF5" opacity="1.000000" stroke="none" 
	d="
M172.862869,106.050262 
	C170.623657,109.828537 168.384445,113.606812 165.573898,117.700912 
	C155.266937,120.800598 145.516418,123.535057 135.822144,126.456131 
	C134.988617,126.707283 134.527969,128.195908 133.894104,129.109695 
	C132.341217,126.661209 130.788300,124.212723 129.249069,121.134239 
	C134.458755,118.346062 139.654770,116.187889 144.850784,114.029716 
	C148.245514,116.674088 147.325317,112.104042 149.422760,111.320564 
	C153.638031,110.178902 157.281296,109.321014 160.938934,108.529488 
	C164.906616,107.670868 168.887650,106.874039 172.862869,106.050262 
z"/>
<path fill="#2B95F7" opacity="1.000000" stroke="none" 
	d="
M236.002197,97.328430 
	C240.455048,96.077606 244.729950,95.055664 249.045639,94.253181 
	C252.078033,93.689323 255.165985,93.424271 258.672241,93.034973 
	C255.798615,98.819229 252.481918,104.594307 248.673386,110.532501 
	C245.936661,110.801842 243.655167,110.689804 241.454330,111.058830 
	C236.588150,111.874786 231.762573,112.932701 226.920425,113.891922 
	C229.894165,108.478302 232.867905,103.064682 236.002197,97.328430 
z"/>
<path fill="#427EFC" opacity="1.000000" stroke="none" 
	d="
M225.992004,57.055653 
	C224.616913,58.104813 223.395309,59.612633 221.842987,60.132069 
	C206.622330,65.225182 191.363190,70.206215 176.059219,75.042595 
	C174.624649,75.495956 172.808273,74.741196 171.003052,74.234062 
	C171.848343,72.157188 172.859756,70.393608 174.412369,68.304779 
	C184.068130,65.221268 193.200256,62.518200 202.273911,59.631348 
	C203.347321,59.289837 204.100479,57.941715 205.470047,57.037289 
	C212.622665,57.028130 219.307343,57.041893 225.992004,57.055653 
z"/>
<path fill="#229AF5" opacity="1.000000" stroke="none" 
	d="
M226.938675,113.915619 
	C231.762573,112.932701 236.588150,111.874786 241.454330,111.058830 
	C243.655167,110.689804 245.936661,110.801842 248.521393,110.853676 
	C248.765640,111.310837 248.670044,111.609947 248.123108,112.204285 
	C247.463257,113.040993 247.254761,113.582481 247.046249,114.123970 
	C244.942276,117.997078 242.838333,121.870193 240.080505,125.755692 
	C237.045975,125.984406 234.647095,126.081642 232.288422,126.442032 
	C227.493256,127.174690 222.719803,128.049469 217.937408,128.865677 
	C220.236954,124.795212 222.536499,120.724739 225.270691,116.223557 
	C226.111008,115.164558 226.516693,114.536278 226.922363,113.907997 
	C226.922363,113.907997 226.956924,113.939323 226.938675,113.915619 
z"/>
<path fill="#0CABF1" opacity="1.000000" stroke="none" 
	d="
M216.001694,167.714737 
	C211.983185,168.510132 208.105499,168.935760 204.241119,169.459442 
	C200.825653,169.922333 197.425003,170.494492 193.586105,171.024948 
	C195.383347,167.238968 197.612289,163.446442 200.272827,159.225311 
	C201.110535,158.171600 201.516647,157.546494 201.922760,156.921387 
	C201.922775,156.921387 201.986359,156.945129 202.376190,156.946411 
	C207.468033,155.925659 212.140808,154.721527 216.884567,153.959213 
	C219.220062,153.583893 221.686905,154.025848 224.094299,154.097992 
	C221.445633,158.527847 218.796967,162.957733 216.001694,167.714737 
z"/>
<path fill="#13A5F2" opacity="1.000000" stroke="none" 
	d="
M224.413940,153.933533 
	C221.686905,154.025848 219.220062,153.583893 216.884567,153.959213 
	C212.140808,154.721527 207.468033,155.925659 202.343887,156.926926 
	C204.689346,151.686050 207.456924,146.465942 210.712372,141.411316 
	C214.400146,141.458115 217.607086,141.433609 220.798203,141.196396 
	C224.576599,140.915558 228.341370,140.451233 232.112061,140.066437 
	C229.652557,144.633987 227.193069,149.201523 224.413940,153.933533 
z"/>
<path fill="#4A7CFD" opacity="1.000000" stroke="none" 
	d="
M38.953571,99.499947 
	C44.109585,97.168625 49.286259,95.197884 54.806049,93.068550 
	C58.048676,97.710869 60.948185,102.511772 63.473663,107.693192 
	C57.693291,109.751701 52.286945,111.429703 46.880596,113.107697 
	C44.245140,108.691971 41.609688,104.276253 38.953571,99.499947 
z"/>
<path fill="#19A0F3" opacity="1.000000" stroke="none" 
	d="
M133.927185,129.468338 
	C134.527969,128.195908 134.988617,126.707283 135.822144,126.456131 
	C145.516418,123.535057 155.266937,120.800598 165.426208,118.025452 
	C165.757309,118.325981 165.664780,118.617783 165.124237,119.200363 
	C164.465561,120.034142 164.254913,120.577141 164.044250,121.120148 
	C162.608276,123.671593 161.172302,126.223038 159.060318,129.052689 
	C151.574036,131.590164 144.763748,133.849457 137.953461,136.108734 
	C136.622406,134.014816 135.291336,131.920898 133.927185,129.468338 
z"/>
<path fill="#19A0F3" opacity="1.000000" stroke="none" 
	d="
M232.428070,139.901917 
	C228.341370,140.451233 224.576599,140.915558 220.798203,141.196396 
	C217.607086,141.433609 214.400146,141.458115 211.027023,141.253174 
	C211.855179,139.163895 212.856522,137.398209 214.310974,135.201172 
	C215.481064,133.489990 216.198013,132.210144 216.914978,130.930313 
	C216.914978,130.930313 216.974518,130.956909 217.150909,130.760010 
	C217.522568,130.016449 217.717819,129.469788 217.913086,128.923141 
	C217.913086,128.923141 217.924133,128.895599 217.930771,128.880646 
	C222.719803,128.049469 227.493256,127.174690 232.288422,126.442032 
	C234.647095,126.081642 237.045975,125.984406 239.767014,125.915039 
	C237.652954,130.620468 235.198532,135.178940 232.428070,139.901917 
z"/>
<path fill="#328DF8" opacity="1.000000" stroke="none" 
	d="
M107.112556,114.895210 
	C110.020157,119.702522 112.927757,124.509842 115.443039,129.667389 
	C111.088013,130.947754 107.020233,131.586731 103.217194,132.959244 
	C101.804733,133.469009 101.012733,135.697922 99.937790,137.142868 
	C96.943146,132.050201 93.948502,126.957535 91.262451,121.329750 
	C96.751549,118.828148 101.932053,116.861679 107.112556,114.895210 
z"/>
<path fill="#2697F6" opacity="1.000000" stroke="none" 
	d="
M85.863358,146.046234 
	C88.517509,150.470963 91.171654,154.895706 93.424690,159.668976 
	C89.138443,160.817337 85.127586,161.265411 81.429001,162.587250 
	C79.913986,163.128723 79.073608,165.557907 77.926331,167.128357 
	C75.285530,162.702805 72.644730,158.277252 70.029861,153.123199 
	C70.897255,151.491714 71.581314,150.102356 72.607513,149.770233 
	C76.970886,148.358200 81.435631,147.259415 85.863358,146.046234 
z"/>
<path fill="#368BF9" opacity="1.000000" stroke="none" 
	d="
M164.551270,84.052856 
	C166.831863,84.343452 168.929825,85.462776 170.734299,85.104401 
	C175.976776,84.063217 181.101639,82.429710 186.692719,81.035019 
	C184.654297,85.605888 182.195801,90.170296 179.066711,94.741135 
	C176.133270,94.820297 173.762421,94.483589 171.628876,95.046448 
	C166.320129,96.446999 161.119492,98.257355 155.875443,99.903168 
	C158.661819,94.670952 161.448196,89.438736 164.551270,84.052856 
z"/>
<path fill="#3091F8" opacity="1.000000" stroke="none" 
	d="
M85.858398,145.688293 
	C81.435631,147.259415 76.970886,148.358200 72.607513,149.770233 
	C71.581314,150.102356 70.897255,151.491714 69.999390,152.765686 
	C66.951836,148.029022 63.960690,142.921341 61.352364,137.427826 
	C67.202774,135.672516 72.670364,134.303055 78.137955,132.933578 
	C80.709785,137.065842 83.281616,141.198090 85.858398,145.688293 
z"/>
<path fill="#2B93F7" opacity="1.000000" stroke="none" 
	d="
M100.093948,137.456802 
	C101.012733,135.697922 101.804733,133.469009 103.217194,132.959244 
	C107.020233,131.586731 111.088013,130.947754 115.456116,130.021347 
	C118.249153,134.092346 120.636780,138.159592 122.670059,142.607315 
	C117.024216,144.629837 110.828438,144.013794 106.935104,149.147171 
	C104.706779,145.355026 102.478447,141.562881 100.093948,137.456802 
z"/>
<path fill="#4083FB" opacity="1.000000" stroke="none" 
	d="
M46.915482,113.468704 
	C52.286945,111.429703 57.693291,109.751701 63.484924,108.047607 
	C66.256973,112.089363 68.643738,116.157204 70.677864,120.605591 
	C65.076431,122.723915 58.774536,121.834404 54.958080,127.145683 
	C52.288841,122.707024 49.619602,118.268356 46.915482,113.468704 
z"/>
<path fill="#2B93F7" opacity="1.000000" stroke="none" 
	d="
M155.557587,100.057869 
	C161.119492,98.257355 166.320129,96.446999 171.628876,95.046448 
	C173.762421,94.483589 176.133270,94.820297 178.753891,94.900993 
	C177.126236,98.500648 175.140793,101.946884 173.009125,105.721687 
	C168.887650,106.874039 164.906616,107.670868 160.938934,108.529488 
	C157.281296,109.321014 153.638031,110.178902 149.575348,111.010452 
	C151.188080,107.413086 153.213898,103.812828 155.557587,100.057869 
z"/>
<path fill="#368BF9" opacity="1.000000" stroke="none" 
	d="
M55.108498,127.460175 
	C58.774536,121.834404 65.076431,122.723915 70.737823,120.969109 
	C73.444153,124.704002 75.737900,128.455917 78.084801,132.570709 
	C72.670364,134.303055 67.202774,135.672516 61.311592,137.062866 
	C59.011642,133.980713 57.135281,130.877686 55.108498,127.460175 
z"/>
<path fill="#1C9EF4" opacity="1.000000" stroke="none" 
	d="
M185.161469,117.011032 
	C187.730209,112.885033 190.298935,108.759026 193.421112,104.312408 
	C198.988647,102.606384 203.954269,100.977646 209.042389,99.963806 
	C210.893494,99.594963 213.036682,100.691971 215.046600,101.120178 
	C213.082932,104.540123 211.119247,107.960075 208.667892,111.540909 
	C205.921127,111.811684 203.562622,111.543167 201.422424,112.105515 
	C195.950241,113.543327 190.575302,115.351181 185.161469,117.011032 
z"/>
<path fill="#1C9EF4" opacity="1.000000" stroke="none" 
	d="
M77.962296,167.485825 
	C79.073608,165.557907 79.913986,163.128723 81.429001,162.587250 
	C85.127586,161.265411 89.138443,160.817337 93.438950,160.025696 
	C96.182693,163.799194 98.511063,167.564499 100.442993,171.678925 
	C96.085197,172.954712 92.018845,173.589935 88.217018,174.959488 
	C86.806610,175.467560 86.016769,177.698318 84.943924,179.143463 
	C82.628716,175.376740 80.313492,171.610016 77.962296,167.485825 
z"/>
<path fill="#2697F6" opacity="1.000000" stroke="none" 
	d="
M215.364929,100.958084 
	C213.036682,100.691971 210.893494,99.594963 209.042389,99.963806 
	C203.954269,100.977646 198.988647,102.606384 193.572418,103.993233 
	C195.200134,100.071899 197.230011,96.149132 199.997055,92.086731 
	C204.388916,91.164597 208.046677,90.396049 211.697479,89.595757 
	C215.508377,88.760376 219.312592,87.894440 223.119720,87.041855 
	C220.640900,91.626572 218.162064,96.211281 215.364929,100.958084 
z"/>
<path fill="#229AF5" opacity="1.000000" stroke="none" 
	d="
M106.970955,149.359833 
	C110.828438,144.013794 117.024216,144.629837 122.727684,142.972626 
	C125.435364,146.715439 127.731071,150.473434 129.700516,154.672684 
	C124.235664,157.126205 119.097084,159.138458 113.958504,161.150696 
	C112.293877,158.378448 110.629242,155.606201 108.877663,152.183990 
	C108.243210,151.016022 107.695709,150.498001 107.148216,149.979980 
	C107.148216,149.979980 107.006805,149.572479 106.970955,149.359833 
z"/>
<path fill="#3E85FA" opacity="1.000000" stroke="none" 
	d="
M107.059937,114.536659 
	C101.932053,116.861679 96.751549,118.828148 91.238358,120.968536 
	C88.257477,116.708679 85.609291,112.274925 83.274620,107.589134 
	C89.084236,105.850868 94.580322,104.364632 100.076416,102.878403 
	C102.386711,106.644966 104.697014,110.411537 107.059937,114.536659 
z"/>
<path fill="#19A0F3" opacity="1.000000" stroke="none" 
	d="
M114.109207,161.464691 
	C119.097084,159.138458 124.235664,157.126205 129.761124,155.036179 
	C132.440628,158.711166 134.733246,162.463928 136.678162,166.617950 
	C130.862534,168.392303 125.394608,169.765396 119.926682,171.138489 
	C118.037766,168.018555 116.148842,164.898621 114.109207,161.464691 
z"/>
<path fill="#3091F8" opacity="1.000000" stroke="none" 
	d="
M223.430298,86.884041 
	C219.312592,87.894440 215.508377,88.760376 211.697479,89.595757 
	C208.046677,90.396049 204.388916,91.164597 200.306152,91.917496 
	C202.003387,87.990021 204.128708,84.092140 206.872604,80.254974 
	C210.499237,79.874466 213.531250,79.554161 216.509705,78.963654 
	C220.976074,78.078186 225.404861,77.003090 229.849625,76.008652 
	C227.813370,79.581177 225.777115,83.153702 223.430298,86.884041 
z"/>
<path fill="#13A5F2" opacity="1.000000" stroke="none" 
	d="
M185.003540,117.330795 
	C190.575302,115.351181 195.950241,113.543327 201.422424,112.105515 
	C203.562622,111.543167 205.921127,111.811684 208.517838,111.863312 
	C207.146301,115.268089 205.437119,118.511345 202.984879,121.898697 
	C194.214310,124.365440 186.186829,126.688087 178.159332,129.010727 
	C180.388092,125.224007 182.616837,121.437279 185.003540,117.330795 
z"/>
<path fill="#368BF9" opacity="1.000000" stroke="none" 
	d="
M229.997803,75.683075 
	C225.404861,77.003090 220.976074,78.078186 216.509705,78.963654 
	C213.531250,79.554161 210.499237,79.874466 207.190369,80.100754 
	C207.575546,78.180946 208.261566,76.476089 208.912445,74.415588 
	C217.586716,71.040123 226.296127,68.020294 235.418182,64.999817 
	C233.935852,68.451935 232.040909,71.904716 229.997803,75.683075 
z"/>
<path fill="#13A5F2" opacity="1.000000" stroke="none" 
	d="
M85.096970,179.458405 
	C86.016769,177.698318 86.806610,175.467560 88.217018,174.959488 
	C92.018845,173.589935 96.085197,172.954712 100.451546,172.036682 
	C102.906998,175.433411 104.957466,178.821518 106.666435,182.611603 
	C103.635521,183.701477 100.843254,184.131119 98.285583,185.149826 
	C95.722633,186.170609 93.393867,187.779388 90.962456,189.130447 
	C89.058311,186.011414 87.154167,182.892395 85.096970,179.458405 
z"/>
<path fill="#0CABF1" opacity="1.000000" stroke="none" 
	d="
M91.113983,189.454712 
	C93.393867,187.779388 95.722633,186.170609 98.285583,185.149826 
	C100.843254,184.131119 103.635521,183.701477 106.725143,182.970001 
	C109.347153,186.391708 111.568977,189.857025 113.815994,193.672302 
	C109.178787,195.203537 104.481583,196.270264 99.884682,197.667084 
	C99.013443,197.931824 98.540115,199.506058 97.891632,200.785614 
	C95.688560,197.323090 93.477043,193.551025 91.113983,189.454712 
z"/>
<path fill="#4D7AFD" opacity="1.000000" stroke="none" 
	d="
M70.926041,86.426483 
	C76.373711,84.746857 81.869240,83.431870 87.741959,82.038383 
	C90.084579,85.382446 92.050011,88.805016 93.686897,92.672493 
	C89.902115,94.079735 86.327682,94.757828 83.039696,96.124847 
	C81.406624,96.803818 80.299515,98.747818 78.954460,100.119530 
	C76.294273,95.676727 73.634087,91.233925 70.926041,86.426483 
z"/>
<path fill="#13A5F2" opacity="1.000000" stroke="none" 
	d="
M137.982819,136.473160 
	C144.763748,133.849457 151.574036,131.590164 158.746994,129.200409 
	C155.121231,136.435349 151.132767,143.800797 146.464630,152.421432 
	C143.212769,146.425934 140.612473,141.631760 137.982819,136.473160 
z"/>
<path fill="#457FFC" opacity="1.000000" stroke="none" 
	d="
M78.981750,100.471924 
	C80.299515,98.747818 81.406624,96.803818 83.039696,96.124847 
	C86.327682,94.757828 89.902115,94.079735 93.743301,93.037773 
	C96.083031,96.026062 98.037819,99.093987 100.034515,102.520157 
	C94.580322,104.364632 89.084236,105.850868 83.243713,107.227287 
	C81.602531,105.019753 80.305786,102.922043 78.981750,100.471924 
z"/>
<path fill="#0CABF1" opacity="1.000000" stroke="none" 
	d="
M178.007568,129.324371 
	C186.186829,126.688087 194.214310,124.365440 202.669556,122.059845 
	C203.047012,122.423172 202.878403,122.696465 202.238129,123.055161 
	C201.682114,123.458130 201.672363,123.716301 201.855576,123.988075 
	C200.482529,126.567886 199.109482,129.147705 197.427673,131.881317 
	C191.913773,133.355179 186.743179,134.846497 181.485794,135.907745 
	C179.492233,136.310150 177.298660,135.721771 175.022217,135.265076 
	C175.850708,133.176102 176.853256,131.407074 178.007568,129.324371 
z"/>
<path fill="#13A5F2" opacity="1.000000" stroke="none" 
	d="
M119.949371,171.497620 
	C125.394608,169.765396 130.862534,168.392303 136.732300,166.981049 
	C139.092896,170.022949 141.051666,173.102982 142.651337,176.571777 
	C137.058136,178.736572 130.762939,177.864059 126.922302,183.118256 
	C124.605553,179.364410 122.288803,175.610580 119.949371,171.497620 
z"/>
<path fill="#0CABF1" opacity="1.000000" stroke="none" 
	d="
M126.951111,183.479950 
	C130.762939,177.864059 137.058136,178.736572 142.699036,176.927948 
	C144.744690,179.671173 146.383560,182.446945 148.074493,185.583588 
	C144.299881,187.072891 140.372498,187.953720 136.695145,189.449310 
	C135.183762,190.063995 134.211044,192.003159 132.954498,193.725616 
	C130.937088,190.688141 128.958511,187.264893 126.951111,183.479950 
z"/>
<path fill="#4A7CFD" opacity="1.000000" stroke="none" 
	d="
M205.002090,57.060215 
	C204.100479,57.941715 203.347321,59.289837 202.273911,59.631348 
	C193.200256,62.518200 184.068130,65.221268 174.561386,67.988655 
	C176.179977,64.420609 178.190750,60.843445 180.998993,57.134438 
	C189.531677,57.021801 197.266876,57.041008 205.002090,57.060215 
z"/>
<path fill="#368BF9" opacity="1.000000" stroke="none" 
	d="
M134.864517,97.026611 
	C136.581512,99.757027 138.298523,102.487442 139.672775,105.595184 
	C134.201157,108.027237 129.072296,110.081970 123.943420,112.136703 
	C122.275475,109.703194 120.607529,107.269684 119.043762,104.150360 
	C124.386810,101.318565 129.625656,99.172592 134.864517,97.026611 
z"/>
<path fill="#2B93F7" opacity="1.000000" stroke="none" 
	d="
M123.963310,112.495758 
	C129.072296,110.081970 134.201157,108.027237 139.738968,105.949158 
	C141.705307,108.391281 143.262711,110.856766 144.835449,113.675980 
	C139.654770,116.187889 134.458755,118.346062 129.097366,120.822144 
	C127.282394,118.378311 125.632797,115.616562 123.963310,112.495758 
z"/>
<path fill="#3E85FA" opacity="1.000000" stroke="none" 
	d="
M134.855957,96.675179 
	C129.625656,99.172592 124.386810,101.318565 119.013458,103.793900 
	C116.990646,101.314186 115.102341,98.505112 113.535141,95.268333 
	C119.277214,92.878342 124.698166,90.916054 130.119110,88.953766 
	C131.695206,91.410423 133.271286,93.867081 134.855957,96.675179 
z"/>
<path fill="#457FFC" opacity="1.000000" stroke="none" 
	d="
M129.982193,88.635437 
	C124.698166,90.916054 119.277214,92.878342 113.506607,94.923721 
	C112.103439,93.280479 111.049919,91.554146 110.166130,89.184586 
	C115.599159,86.679199 120.862465,84.817055 126.125771,82.954910 
	C127.365601,84.742310 128.605438,86.529709 129.982193,88.635437 
z"/>
<path fill="#4D7AFD" opacity="1.000000" stroke="none" 
	d="
M126.072266,82.597137 
	C120.862465,84.817055 115.599159,86.679199 110.136124,88.837402 
	C108.625244,87.034378 107.314095,84.935310 105.973831,82.484726 
	C111.078987,80.095482 116.213272,78.057755 121.743156,75.984131 
	C123.432098,78.045288 124.725426,80.142326 126.072266,82.597137 
z"/>
<path fill="#7C95FF" opacity="1.000000" stroke="none" 
	d="
M205.470047,57.037292 
	C197.266876,57.041008 189.531677,57.021801 181.315994,56.995399 
	C181.677582,56.660305 182.518768,56.048763 183.361801,56.046246 
	C201.401825,55.992310 219.442093,55.993923 237.482117,56.049183 
	C238.294693,56.051674 239.105392,56.660080 239.871078,57.402885 
	C235.521194,57.547298 231.217194,57.275097 226.452606,57.029274 
	C219.307343,57.041893 212.622665,57.028130 205.470047,57.037292 
z"/>
<path fill="#7C95FF" opacity="1.000000" stroke="none" 
	d="
M73.791512,56.707779 
	C54.261162,57.101540 34.671604,57.046474 14.623940,56.989567 
	C14.631667,56.663891 15.097991,56.056282 15.563272,56.057083 
	C34.953007,56.090321 54.342651,56.178040 73.791512,56.707779 
z"/>
<path fill="#229AF5" opacity="1.000000" stroke="none" 
	d="
M216.606903,131.045914 
	C216.198013,132.210144 215.481064,133.489990 214.461914,134.886887 
	C214.872742,133.723145 215.585785,132.442322 216.606903,131.045914 
z"/>
<path fill="#13A5F2" opacity="1.000000" stroke="none" 
	d="
M201.641846,157.022705 
	C201.516647,157.546494 201.110535,158.171600 200.431671,158.905121 
	C200.559601,158.383698 200.960266,157.753860 201.641846,157.022705 
z"/>
<path fill="#2B93F7" opacity="1.000000" stroke="none" 
	d="
M107.130676,150.280533 
	C107.695709,150.498001 108.243210,151.016022 108.845383,151.824005 
	C108.304420,151.603012 107.708778,151.092041 107.130676,150.280533 
z"/>
<path fill="#2B95F7" opacity="1.000000" stroke="none" 
	d="
M226.642761,114.013321 
	C226.516693,114.536278 226.111008,115.164558 225.431549,115.901436 
	C225.559555,115.379570 225.961349,114.749100 226.642761,114.013321 
z"/>
<path fill="#229AF5" opacity="1.000000" stroke="none" 
	d="
M217.612671,129.035385 
	C217.717819,129.469788 217.522568,130.016449 217.123016,130.776871 
	C217.049881,130.376297 217.181076,129.761963 217.612671,129.035385 
z"/>
<path fill="#2B95F7" opacity="1.000000" stroke="none" 
	d="
M247.333160,113.997375 
	C247.254761,113.582481 247.463257,113.040993 247.888763,112.307648 
	C247.943863,112.700790 247.781952,113.285782 247.333160,113.997375 
z"/>
<path fill="#0CABF1" opacity="1.000000" stroke="none" 
	d="
M192.618729,172.006042 
	C192.733047,172.396164 192.578430,172.883484 192.226181,173.520325 
	C192.135620,173.147659 192.242706,172.625473 192.618729,172.006042 
z"/>
<path fill="#229AF5" opacity="1.000000" stroke="none" 
	d="
M164.331543,120.992386 
	C164.254913,120.577141 164.465561,120.034142 164.892212,119.295425 
	C164.945099,119.688011 164.781982,120.276314 164.331543,120.992386 
z"/>
<path fill="#13A5F2" opacity="1.000000" stroke="none" 
	d="
M201.938904,123.759727 
	C201.672363,123.716301 201.682114,123.458130 202.004532,123.134811 
	C202.124252,123.056068 202.022217,123.531380 201.938904,123.759727 
z"/>
</svg>